<?xml version="1.0" encoding="UTF-8"?>
<!DOCTYPE svg PUBLIC "-//W3C//DTD SVG 1.1//EN" "http://www.w3.org/Graphics/SVG/1.1/DTD/svg11.dtd">
<svg xmlns="http://www.w3.org/2000/svg" version="1.1" width="349px" height="361px" style="shape-rendering:geometricPrecision; text-rendering:geometricPrecision; image-rendering:optimizeQuality; fill-rule:evenodd; clip-rule:evenodd" xmlns:xlink="http://www.w3.org/1999/xlink">
<g><path style="opacity:1" fill="#6c361f" d="M 166.5,32.5 C 172.232,32.2832 177.899,32.7832 183.5,34C 189.461,38.0158 190.628,43.1824 187,49.5C 185.513,50.1552 184.347,51.1552 183.5,52.5C 185.167,55.8333 186.833,59.1667 188.5,62.5C 186.516,63.7059 184.516,63.7059 182.5,62.5C 180.58,59.6612 178.913,56.6612 177.5,53.5C 175.604,52.5344 173.604,52.2011 171.5,52.5C 171.665,55.5184 171.498,58.5184 171,61.5C 169.333,62.8333 167.667,62.8333 166,61.5C 165.877,51.8379 166.044,42.1712 166.5,32.5 Z M 172.5,38.5 C 176.007,37.9935 179.174,38.6602 182,40.5C 183.513,44.7712 182.013,47.1046 177.5,47.5C 175.5,47 173.5,46.5 171.5,46C 172.435,43.6194 172.768,41.1194 172.5,38.5 Z"/></g>
<g><path style="opacity:1" fill="#6a3520" d="M 136.5,35.5 C 138.288,35.2148 139.955,35.5481 141.5,36.5C 146.584,45.0029 151.917,53.3363 157.5,61.5C 155.535,62.2922 153.535,62.9588 151.5,63.5C 150.376,62.086 149.376,60.586 148.5,59C 144.473,58.6689 140.473,59.0023 136.5,60C 135.133,62.3015 134.466,64.8015 134.5,67.5C 132.533,67.2606 130.699,67.5939 129,68.5C 129.88,58.0921 131.546,47.7588 134,37.5C 134.995,36.9341 135.828,36.2674 136.5,35.5 Z M 138.5,43.5 C 140.725,46.2624 142.725,49.2624 144.5,52.5C 141.911,54.1573 139.244,54.4906 136.5,53.5C 137.551,50.243 138.218,46.9097 138.5,43.5 Z"/></g>
<g><path style="opacity:1" fill="#6a3622" d="M 229.5,44.5 C 234.697,45.9248 237.03,49.4248 236.5,55C 236.14,56.6515 235.807,58.3182 235.5,60C 239.798,58.6794 243.798,56.5127 247.5,53.5C 249.167,54.6667 250.833,55.8333 252.5,57C 247.338,60.7487 242.004,64.2487 236.5,67.5C 234.416,71.3359 232.083,75.0026 229.5,78.5C 227.947,77.561 226.613,76.3943 225.5,75C 226.864,71.7728 228.364,68.6061 230,65.5C 230.228,58.5007 230.061,51.5007 229.5,44.5 Z"/></g>
<g><path style="opacity:1" fill="#6a3520" d="M 203.5,36.5 C 206.323,36.0254 208.323,37.0254 209.5,39.5C 207.121,46.7825 205.288,54.1159 204,61.5C 207.334,63.0422 210.834,64.0422 214.5,64.5C 214.753,66.8273 214.086,68.8273 212.5,70.5C 207.235,68.5188 201.902,66.8521 196.5,65.5C 198.99,55.8749 201.323,46.2082 203.5,36.5 Z"/></g>
<g><path style="opacity:1" fill="#693420" d="M 261.5,64.5 C 262.552,64.3505 263.552,64.5172 264.5,65C 269.007,68.6763 273.341,72.5096 277.5,76.5C 276.788,78.0459 275.622,79.0459 274,79.5C 271.178,77.3475 268.344,75.1808 265.5,73C 264.365,72.2506 263.365,72.4173 262.5,73.5C 261.167,74.6199 260.667,75.9532 261,77.5C 263.446,79.9586 265.946,82.2919 268.5,84.5C 267.485,85.6815 266.319,86.6815 265,87.5C 262.333,85.5 259.667,83.5 257,81.5C 254.833,82.3333 253.333,83.8333 252.5,86C 255.66,88.9943 258.66,92.1609 261.5,95.5C 260.833,96.8333 259.833,97.8333 258.5,98.5C 253.514,94.8451 248.847,90.8451 244.5,86.5C 250.215,79.1293 255.881,71.796 261.5,64.5 Z"/></g>
<g><path style="opacity:1" fill="#69341f" d="M 98.5,47.5 C 99.3764,47.3691 100.043,47.7025 100.5,48.5C 103.502,55.8376 107.002,62.8376 111,69.5C 114.682,67.825 118.349,66.1583 122,64.5C 123.663,66.1579 124.496,68.1579 124.5,70.5C 119.5,71.5008 114.833,73.3341 110.5,76C 109.056,76.7805 107.723,76.6139 106.5,75.5C 102.696,67.3925 99.0295,59.2259 95.5,51C 96.0707,49.4009 97.0707,48.2342 98.5,47.5 Z"/></g>
<g><path style="opacity:1" fill="#764024" d="M 172.5,80.5 C 170.856,80.7135 169.356,80.3802 168,79.5C 167.184,80.8228 166.017,81.4894 164.5,81.5C 167.007,77.183 169.674,76.8497 172.5,80.5 Z"/></g>
<g><path style="opacity:1" fill="#6c3620" d="M 76.5,61.5 C 87.9178,61.0816 94.2512,66.5816 95.5,78C 92.6599,90.4954 84.9932,95.162 72.5,92C 63.8266,85.9785 61.66,78.1451 66,68.5C 68.9978,65.2623 72.4978,62.9289 76.5,61.5 Z M 75.5,67.5 C 86.1715,67.3241 90.3381,72.3241 88,82.5C 81.8333,89.4124 76.1667,89.0791 71,81.5C 68.6057,75.5175 70.1057,70.8508 75.5,67.5 Z"/></g>
<g><path style="opacity:1" fill="#965224" d="M 172.5,80.5 C 184.167,86.9408 196.167,92.6074 208.5,97.5C 212.085,99.8061 216.085,101.139 220.5,101.5C 223.067,101.721 225.401,102.388 227.5,103.5C 233.558,105.57 239.892,106.904 246.5,107.5C 244.964,110.524 242.464,112.191 239,112.5C 214.19,108.176 191.024,99.5098 169.5,86.5C 150.662,97.4452 130.662,105.445 109.5,110.5C 110.737,108.903 112.404,107.737 114.5,107C 114.167,106.667 113.833,106.333 113.5,106C 115.715,105.83 117.715,105.163 119.5,104C 118.975,103.308 118.308,102.808 117.5,102.5C 115.591,103.348 113.591,103.682 111.5,103.5C 129.92,98.1275 147.587,90.7942 164.5,81.5C 166.017,81.4894 167.184,80.8228 168,79.5C 169.356,80.3802 170.856,80.7135 172.5,80.5 Z"/></g>
<g><path style="opacity:0.447" fill="#552e21" d="M 208.5,97.5 C 212.784,98.2613 216.784,99.5947 220.5,101.5C 216.085,101.139 212.085,99.8061 208.5,97.5 Z"/></g>
<g><path style="opacity:1" fill="#9f5520" d="M 109.5,110.5 C 108.5,110.5 107.5,110.5 106.5,110.5C 102.175,110.379 98.0087,111.046 94,112.5C 93.5,111.333 92.6667,110.5 91.5,110C 93.0329,108.86 94.6996,107.693 96.5,106.5C 98.9201,106.292 101.253,106.626 103.5,107.5C 104.696,107.154 104.696,106.654 103.5,106C 106.31,105.218 108.977,104.384 111.5,103.5C 113.591,103.682 115.591,103.348 117.5,102.5C 118.308,102.808 118.975,103.308 119.5,104C 117.715,105.163 115.715,105.83 113.5,106C 113.833,106.333 114.167,106.667 114.5,107C 112.404,107.737 110.737,108.903 109.5,110.5 Z"/></g>
<g><path style="opacity:1" fill="#6f3b21" d="M 111.5,103.5 C 108.977,104.384 106.31,105.218 103.5,106C 104.696,106.654 104.696,107.154 103.5,107.5C 101.253,106.626 98.9201,106.292 96.5,106.5C 101.231,104.739 106.231,103.739 111.5,103.5 Z"/></g>
<g><path style="opacity:0.165" fill="#6b4232" d="M 227.5,103.5 C 233.237,104.114 238.904,105.114 244.5,106.5C 245.167,106.167 245.833,105.833 246.5,105.5C 250.88,106.928 255.213,108.262 259.5,109.5C 259.806,112.385 259.473,115.052 258.5,117.5C 258.663,115.143 258.497,112.81 258,110.5C 256.67,111.582 255.17,112.249 253.5,112.5C 254.706,111.12 254.373,109.953 252.5,109C 250.414,108.685 248.414,108.185 246.5,107.5C 239.892,106.904 233.558,105.57 227.5,103.5 Z"/></g>
<g><path style="opacity:1" fill="#6a3520" d="M 287.5,88.5 C 292.615,91.804 296.115,96.4706 298,102.5C 298.134,115.539 291.634,121.372 278.5,120C 272.917,116.368 268.584,111.535 265.5,105.5C 272.852,99.8094 280.185,94.1427 287.5,88.5 Z M 286.5,96.5 C 289.452,97.3589 291.285,99.3589 292,102.5C 292.672,111.492 288.506,115.325 279.5,114C 276.5,112.333 274.167,110 272.5,107C 277.35,103.637 282.017,100.137 286.5,96.5 Z"/></g>
<g><path style="opacity:1" fill="#6a3520" d="M 46.5,87.5 C 49.7143,88.4404 52.7143,89.9404 55.5,92C 60.7141,95.7684 65.7141,99.7684 70.5,104C 70,105.833 68.8333,107 67,107.5C 64.5015,105.583 61.8349,103.916 59,102.5C 57.395,103.101 56.0616,104.101 55,105.5C 53.6233,107.754 52.1233,109.92 50.5,112C 53.5398,114.51 56.5398,117.01 59.5,119.5C 58.5197,120.981 57.353,122.315 56,123.5C 47.8636,118.189 40.0302,112.522 32.5,106.5C 33.5,105.167 34.5,103.833 35.5,102.5C 39.258,104.461 42.758,106.795 46,109.5C 48.3045,105.696 50.8045,102.03 53.5,98.5C 50.4679,95.9916 47.4679,93.4916 44.5,91C 44.9783,89.6974 45.645,88.5307 46.5,87.5 Z"/></g>
<g><path style="opacity:0.875" fill="#653827" d="M 201.5,136.5 C 199.073,136.477 196.74,135.977 194.5,135C 190.637,132.878 186.637,131.045 182.5,129.5C 172.231,124.951 161.898,120.284 151.5,115.5C 146.813,117.837 142.147,120.17 137.5,122.5C 136.5,122.5 135.5,122.5 134.5,122.5C 139.265,119.732 144.265,117.232 149.5,115C 151.167,114.333 152.833,114.333 154.5,115C 170.395,121.899 186.062,129.065 201.5,136.5 Z"/></g>
<g><path style="opacity:1" fill="#70341a" d="M 182.5,129.5 C 181.903,129.735 181.57,130.235 181.5,131C 181.96,135.764 183.127,136.264 185,132.5C 185.903,133.701 187.069,134.535 188.5,135C 185.953,135.552 183.953,136.886 182.5,139C 183.448,139.483 184.448,139.649 185.5,139.5C 185.67,140.822 185.337,141.989 184.5,143C 188.307,144.693 188.974,143.859 186.5,140.5C 188.325,139.429 189.492,140.096 190,142.5C 190.851,139.388 192.017,139.054 193.5,141.5C 194.584,140.335 195.417,139.002 196,137.5C 198.113,139.271 197.947,140.771 195.5,142C 197.904,142.508 198.571,143.675 197.5,145.5C 196.685,143.724 195.518,143.057 194,143.5C 191.425,145.81 188.591,146.643 185.5,146C 184.648,148.362 183.148,150.195 181,151.5C 179.312,150.675 179.145,149.675 180.5,148.5C 179.635,147.417 178.635,147.251 177.5,148C 176.139,149.584 175.472,151.418 175.5,153.5C 172.921,153.917 170.754,153.25 169,151.5C 167.021,152.714 165.521,154.381 164.5,156.5C 164.851,154.797 164.184,153.13 162.5,151.5C 161.614,152.325 161.281,153.325 161.5,154.5C 159.856,154.714 158.356,154.38 157,153.5C 156.383,154.449 156.549,155.282 157.5,156C 156.299,156.903 155.465,158.069 155,159.5C 155.227,157.426 155.061,155.426 154.5,153.5C 156.098,151.027 157.598,151.027 159,153.5C 159.167,153.167 159.333,152.833 159.5,152.5C 157.403,149.926 155.736,147.093 154.5,144C 155.931,143.535 157.097,142.701 158,141.5C 158.402,142.872 158.902,144.205 159.5,145.5C 158.975,146.192 158.308,146.692 157.5,147C 157.93,147.92 158.264,148.753 158.5,149.5C 159.364,147.803 160.697,146.637 162.5,146C 161.547,144.296 160.547,142.63 159.5,141C 160.596,138.853 162.096,138.353 164,139.5C 164.778,137.416 165.945,135.583 167.5,134C 166.301,131.516 164.468,131.35 162,133.5C 161.667,133.167 161.333,132.833 161,132.5C 160.722,133.416 160.222,134.082 159.5,134.5C 159.459,132.255 158.625,131.588 157,132.5C 155.513,131.747 155.346,130.914 156.5,130C 155.751,128.266 155.251,126.433 155,124.5C 153.989,125.337 152.822,125.67 151.5,125.5C 151.141,127.766 151.808,129.599 153.5,131C 150.502,132.344 147.502,132.511 144.5,131.5C 143.205,132.098 141.872,132.598 140.5,133C 141.696,133.654 141.696,134.154 140.5,134.5C 139.029,133.619 138.196,132.286 138,130.5C 136.612,131.554 135.112,131.72 133.5,131C 134.833,130.333 134.833,129.667 133.5,129C 135.291,128.585 136.624,127.585 137.5,126C 136.316,124.855 136.316,123.688 137.5,122.5C 142.147,120.17 146.813,117.837 151.5,115.5C 161.898,120.284 172.231,124.951 182.5,129.5 Z"/></g>
<g><path style="opacity:1" fill="#71371f" d="M 134.5,122.5 C 135.5,122.5 136.5,122.5 137.5,122.5C 136.316,123.688 136.316,124.855 137.5,126C 136.624,127.585 135.291,128.585 133.5,129C 134.833,129.667 134.833,130.333 133.5,131C 135.112,131.72 136.612,131.554 138,130.5C 138.196,132.286 139.029,133.619 140.5,134.5C 141.696,134.154 141.696,133.654 140.5,133C 141.872,132.598 143.205,132.098 144.5,131.5C 147.502,132.511 150.502,132.344 153.5,131C 151.808,129.599 151.141,127.766 151.5,125.5C 152.822,125.67 153.989,125.337 155,124.5C 155.251,126.433 155.751,128.266 156.5,130C 155.346,130.914 155.513,131.747 157,132.5C 158.625,131.588 159.459,132.255 159.5,134.5C 158.829,135.847 158.829,137.014 159.5,138C 158.756,139.039 157.756,139.539 156.5,139.5C 158.532,135.341 157.199,133.007 152.5,132.5C 150.045,132.894 148.045,134.06 146.5,136C 134.936,139.308 123.269,142.141 111.5,144.5C 111.5,145.833 111.5,147.167 111.5,148.5C 113.5,148.5 115.5,148.5 117.5,148.5C 117.389,149.117 117.056,149.617 116.5,150C 117.942,150.377 118.942,151.21 119.5,152.5C 116.808,151.991 114.308,150.991 112,149.5C 110.935,154.558 111.768,159.225 114.5,163.5C 113.544,165.075 112.877,166.742 112.5,168.5C 109.885,167.709 107.218,167.043 104.5,166.5C 102.992,163.878 103.492,161.545 106,159.5C 106.667,155.5 106.667,151.5 106,147.5C 103.696,145.932 101.196,144.765 98.5,144C 96.7888,142.867 96.2888,141.367 97,139.5C 109.209,133.145 121.709,127.478 134.5,122.5 Z"/></g>
<g><path style="opacity:0.859" fill="#905536" d="M 246.5,116.5 C 240.019,121.923 233.686,127.589 227.5,133.5C 232.267,126.066 238.6,120.399 246.5,116.5 Z"/></g>
<g><path style="opacity:1" fill="#6b3520" d="M 299.5,123.5 C 309.951,124.118 315.617,129.618 316.5,140C 316.66,142.47 315.993,144.636 314.5,146.5C 313.833,146.167 313.167,145.833 312.5,145.5C 312.444,140.309 310.777,135.809 307.5,132C 299.227,128.469 293.894,130.969 291.5,139.5C 291.665,145.579 294.665,148.579 300.5,148.5C 300.244,146.063 299.577,143.729 298.5,141.5C 299.436,140.026 300.77,139.026 302.5,138.5C 304.955,142.865 306.622,147.531 307.5,152.5C 297.307,156.984 290.473,153.984 287,143.5C 284.879,132.719 289.046,126.052 299.5,123.5 Z"/></g>
<g><path style="opacity:1" fill="#9e5521" d="M 258.5,117.5 C 258.58,120.781 257.913,123.781 256.5,126.5C 255.168,130.424 253.835,134.424 252.5,138.5C 252.204,142.789 250.204,145.789 246.5,147.5C 241.642,148.596 237.309,150.762 233.5,154C 234.094,154.464 234.761,154.631 235.5,154.5C 234.328,155.705 232.995,155.705 231.5,154.5C 230.201,155.09 229.368,156.09 229,157.5C 227.855,156.316 226.688,156.316 225.5,157.5C 232.875,143.612 242.041,130.945 253,119.5C 253.667,118.833 253.667,118.167 253,117.5C 232.384,138.085 215.718,161.418 203,187.5C 198.155,199.898 192.655,211.898 186.5,223.5C 185.566,216.965 185.566,210.632 186.5,204.5C 186.595,202.214 187.262,200.214 188.5,198.5C 189.222,198.082 189.722,197.416 190,196.5C 190.333,197.833 190.667,199.167 191,200.5C 191.249,197.823 192.249,195.49 194,193.5C 194.998,196.028 195.831,196.028 196.5,193.5C 197.365,187.854 198.031,182.187 198.5,176.5C 199.84,171.987 201.673,167.653 204,163.5C 206.639,158.382 209.805,153.715 213.5,149.5C 214.458,149.047 215.292,148.381 216,147.5C 216.333,150.167 216.667,152.833 217,155.5C 219.591,151.56 221.091,147.227 221.5,142.5C 222.246,138.677 224.246,135.677 227.5,133.5C 233.686,127.589 240.019,121.923 246.5,116.5C 248.336,114.412 250.669,113.079 253.5,112.5C 255.17,112.249 256.67,111.582 258,110.5C 258.497,112.81 258.663,115.143 258.5,117.5 Z"/></g>
<g><path style="opacity:1" fill="#e1b472" d="M 156.5,139.5 C 153.813,139.336 151.146,139.503 148.5,140C 137.885,142.412 127.552,145.245 117.5,148.5C 115.5,148.5 113.5,148.5 111.5,148.5C 111.5,147.167 111.5,145.833 111.5,144.5C 123.269,142.141 134.936,139.308 146.5,136C 148.045,134.06 150.045,132.894 152.5,132.5C 157.199,133.007 158.532,135.341 156.5,139.5 Z"/></g>
<g><path style="opacity:1" fill="#70351c" d="M 182.5,129.5 C 186.637,131.045 190.637,132.878 194.5,135C 196.74,135.977 199.073,136.477 201.5,136.5C 204.513,136.72 206.847,138.053 208.5,140.5C 208.167,141.167 207.833,141.833 207.5,142.5C 201.963,145.435 196.296,148.102 190.5,150.5C 185.088,151.786 179.921,153.786 175,156.5C 174.667,156.167 174.333,155.833 174,155.5C 167.219,159.808 160.052,163.474 152.5,166.5C 147.314,164.269 142.148,161.935 137,159.5C 136.601,159.728 136.435,160.062 136.5,160.5C 130.413,158.589 124.747,155.923 119.5,152.5C 118.942,151.21 117.942,150.377 116.5,150C 117.056,149.617 117.389,149.117 117.5,148.5C 127.552,145.245 137.885,142.412 148.5,140C 151.146,139.503 153.813,139.336 156.5,139.5C 157.756,139.539 158.756,139.039 159.5,138C 158.829,137.014 158.829,135.847 159.5,134.5C 160.222,134.082 160.722,133.416 161,132.5C 161.333,132.833 161.667,133.167 162,133.5C 164.468,131.35 166.301,131.516 167.5,134C 165.945,135.583 164.778,137.416 164,139.5C 162.096,138.353 160.596,138.853 159.5,141C 160.547,142.63 161.547,144.296 162.5,146C 160.697,146.637 159.364,147.803 158.5,149.5C 158.264,148.753 157.93,147.92 157.5,147C 158.308,146.692 158.975,146.192 159.5,145.5C 158.902,144.205 158.402,142.872 158,141.5C 157.097,142.701 155.931,143.535 154.5,144C 155.736,147.093 157.403,149.926 159.5,152.5C 159.333,152.833 159.167,153.167 159,153.5C 157.598,151.027 156.098,151.027 154.5,153.5C 155.061,155.426 155.227,157.426 155,159.5C 155.465,158.069 156.299,156.903 157.5,156C 156.549,155.282 156.383,154.449 157,153.5C 158.356,154.38 159.856,154.714 161.5,154.5C 161.281,153.325 161.614,152.325 162.5,151.5C 164.184,153.13 164.851,154.797 164.5,156.5C 165.521,154.381 167.021,152.714 169,151.5C 170.754,153.25 172.921,153.917 175.5,153.5C 175.472,151.418 176.139,149.584 177.5,148C 178.635,147.251 179.635,147.417 180.5,148.5C 179.145,149.675 179.312,150.675 181,151.5C 183.148,150.195 184.648,148.362 185.5,146C 188.591,146.643 191.425,145.81 194,143.5C 195.518,143.057 196.685,143.724 197.5,145.5C 198.571,143.675 197.904,142.508 195.5,142C 197.947,140.771 198.113,139.271 196,137.5C 195.417,139.002 194.584,140.335 193.5,141.5C 192.017,139.054 190.851,139.388 190,142.5C 189.492,140.096 188.325,139.429 186.5,140.5C 188.974,143.859 188.307,144.693 184.5,143C 185.337,141.989 185.67,140.822 185.5,139.5C 184.448,139.649 183.448,139.483 182.5,139C 183.953,136.886 185.953,135.552 188.5,135C 187.069,134.535 185.903,133.701 185,132.5C 183.127,136.264 181.96,135.764 181.5,131C 181.57,130.235 181.903,129.735 182.5,129.5 Z"/></g>
<g><path style="opacity:1" fill="#e5b874" d="M 225.5,157.5 C 219.009,167.808 213.009,178.474 207.5,189.5C 200.946,203.274 194.946,217.274 189.5,231.5C 188.5,231.5 187.5,231.5 186.5,231.5C 186.5,228.833 186.5,226.167 186.5,223.5C 192.655,211.898 198.155,199.898 203,187.5C 215.718,161.418 232.384,138.085 253,117.5C 253.667,118.167 253.667,118.833 253,119.5C 242.041,130.945 232.875,143.612 225.5,157.5 Z"/></g>
<g><path style="opacity:1" fill="#6c3620" d="M 28.5,122.5 C 29.5,122.5 30.5,122.5 31.5,122.5C 31.5,124.5 31.5,126.5 31.5,128.5C 28.405,128.626 26.5717,130.293 26,133.5C 24.7323,141.245 28.0657,145.578 36,146.5C 43.6251,144.419 46.1251,139.585 43.5,132C 44.6531,128.323 46.4864,127.823 49,130.5C 51.4002,138.72 49.2336,145.554 42.5,151C 29.8831,154.697 22.2165,150.197 19.5,137.5C 19.6758,130.687 22.6758,125.687 28.5,122.5 Z"/></g>
<g><path style="opacity:0.086" fill="#714a3a" d="M 256.5,126.5 C 254.979,134.458 255.646,142.125 258.5,149.5C 257.833,149.5 257.5,149.833 257.5,150.5C 256.833,150.5 256.167,150.5 255.5,150.5C 255.219,146.812 254.719,143.145 254,139.5C 253.617,138.944 253.117,138.611 252.5,138.5C 253.835,134.424 255.168,130.424 256.5,126.5 Z"/></g>
<g><path style="opacity:0.251" fill="#4e291d" d="M 258.5,149.5 C 258.667,164.17 258.5,178.837 258,193.5C 257.386,198.758 256.219,203.758 254.5,208.5C 257.244,189.289 258.244,169.956 257.5,150.5C 257.5,149.833 257.833,149.5 258.5,149.5 Z"/></g>
<g><path style="opacity:0.518" fill="#99603e" d="M 221.5,142.5 C 221.091,147.227 219.591,151.56 217,155.5C 216.667,152.833 216.333,150.167 216,147.5C 215.292,148.381 214.458,149.047 213.5,149.5C 216.839,142.673 218.339,143.339 218,151.5C 218.505,148.135 219.672,145.135 221.5,142.5 Z"/></g>
<g><path style="opacity:1" fill="#8c5537" d="M 246.5,147.5 C 243.389,149.559 240.056,151.392 236.5,153C 239.74,153.099 242.906,152.599 246,151.5C 246.5,152 247,152.5 247.5,153C 246.067,155.173 244.734,157.34 243.5,159.5C 243.5,157.5 243.5,155.5 243.5,153.5C 240.873,154.092 238.206,154.425 235.5,154.5C 234.761,154.631 234.094,154.464 233.5,154C 237.309,150.762 241.642,148.596 246.5,147.5 Z"/></g>
<g><path style="opacity:1" fill="#9e5522" d="M 243.5,159.5 C 241.594,163.922 239.428,168.256 237,172.5C 232.916,175.126 228.75,177.626 224.5,180C 226.134,180.494 227.801,180.66 229.5,180.5C 226.12,183.089 222.62,183.089 219,180.5C 217.238,180.944 217.405,181.444 219.5,182C 218.354,182.645 217.354,183.478 216.5,184.5C 215.186,183.687 214.019,182.687 213,181.5C 211.861,184.823 210.027,187.49 207.5,189.5C 213.009,178.474 219.009,167.808 225.5,157.5C 226.688,156.316 227.855,156.316 229,157.5C 229.368,156.09 230.201,155.09 231.5,154.5C 232.995,155.705 234.328,155.705 235.5,154.5C 238.206,154.425 240.873,154.092 243.5,153.5C 243.5,155.5 243.5,157.5 243.5,159.5 Z"/></g>
<g><path style="opacity:1" fill="#653827" d="M 190.5,150.5 C 177.924,156.452 165.258,162.452 152.5,168.5C 147.075,165.787 141.741,163.121 136.5,160.5C 136.435,160.062 136.601,159.728 137,159.5C 142.148,161.935 147.314,164.269 152.5,166.5C 160.052,163.474 167.219,159.808 174,155.5C 174.333,155.833 174.667,156.167 175,156.5C 179.921,153.786 185.088,151.786 190.5,150.5 Z"/></g>
<g><path style="opacity:0.737" fill="#603425" d="M 146.5,168.5 C 146.44,169.043 146.107,169.376 145.5,169.5C 136.924,165.628 128.424,161.628 120,157.5C 119.333,163.833 119.333,170.167 120,176.5C 121.8,178.317 123.966,179.484 126.5,180C 127.738,180.69 127.738,181.19 126.5,181.5C 123.657,180.828 121.157,179.495 119,177.5C 118.798,170.45 118.298,163.45 117.5,156.5C 117.833,156.167 118.167,155.833 118.5,155.5C 127.863,159.84 137.196,164.173 146.5,168.5 Z"/></g>
<g><path style="opacity:0.686" fill="#5e3323" d="M 180.5,181.5 C 181.914,179.946 183.581,178.612 185.5,177.5C 186.664,171.528 186.83,165.528 186,159.5C 185.439,158.978 184.772,158.645 184,158.5C 173.301,163.603 162.467,168.269 151.5,172.5C 150.817,172.137 150.15,171.804 149.5,171.5C 148.833,170.833 148.167,170.167 147.5,169.5C 149.819,170.167 152.153,170.334 154.5,170C 165.048,164.893 175.714,160.059 186.5,155.5C 187.665,163.145 187.831,170.812 187,178.5C 185.007,179.914 182.84,180.914 180.5,181.5 Z"/></g>
<g><path style="opacity:1" fill="#6d3620" d="M 319.5,160.5 C 320.5,160.5 321.5,160.5 322.5,160.5C 323.459,166.795 324.125,173.128 324.5,179.5C 323.07,179.421 321.736,179.754 320.5,180.5C 318.815,176.345 318.149,172.012 318.5,167.5C 316.167,167.5 313.833,167.5 311.5,167.5C 312.272,171.452 312.605,175.452 312.5,179.5C 310.833,179.5 309.167,179.5 307.5,179.5C 307.276,175.821 306.942,172.154 306.5,168.5C 304.5,168.5 302.5,168.5 300.5,168.5C 300.228,172.902 300.561,177.235 301.5,181.5C 299.604,182.466 297.604,182.799 295.5,182.5C 295.324,176.236 294.657,170.069 293.5,164C 302.253,162.704 310.92,161.538 319.5,160.5 Z"/></g>
<g><path style="opacity:1" fill="#70351c" d="M 146.5,168.5 C 147.167,168.5 147.5,168.833 147.5,169.5C 148.167,170.167 148.833,170.833 149.5,171.5C 148.279,172.028 147.113,172.695 146,173.5C 143.301,170.736 141.634,171.403 141,175.5C 139.119,177.825 137.452,177.825 136,175.5C 133.057,176.24 132.891,177.24 135.5,178.5C 133.009,179.541 133.009,180.374 135.5,181C 134.672,181.915 133.672,182.581 132.5,183C 139.107,187.22 145.94,191.054 153,194.5C 154.621,194.275 155.788,193.442 156.5,192C 155.427,190.584 155.427,189.25 156.5,188C 155.551,187.383 154.718,187.549 154,188.5C 152.954,184.453 153.787,183.786 156.5,186.5C 157.086,186.291 157.586,185.957 158,185.5C 159.34,186.868 160.674,188.201 162,189.5C 163.811,188.576 163.645,187.743 161.5,187C 163.013,184.977 164.346,185.144 165.5,187.5C 170.419,185.204 175.419,183.204 180.5,181.5C 171.881,187.06 162.714,191.727 153,195.5C 143.77,191.469 134.936,186.803 126.5,181.5C 127.738,181.19 127.738,180.69 126.5,180C 123.966,179.484 121.8,178.317 120,176.5C 119.333,170.167 119.333,163.833 120,157.5C 128.424,161.628 136.924,165.628 145.5,169.5C 146.107,169.376 146.44,169.043 146.5,168.5 Z"/></g>
<g><path style="opacity:0.996" fill="#bb6e31" d="M 104.5,166.5 C 107.218,167.043 109.885,167.709 112.5,168.5C 112.5,169.167 112.5,169.833 112.5,170.5C 112.523,176.712 113.19,182.712 114.5,188.5C 114.5,188.833 114.5,189.167 114.5,189.5C 114.5,191.167 114.5,192.833 114.5,194.5C 110.833,194.5 107.167,194.5 103.5,194.5C 103.795,192.265 103.461,190.265 102.5,188.5C 102.247,181.439 103.247,174.605 105.5,168C 104.944,167.617 104.611,167.117 104.5,166.5 Z"/></g>
<g><path style="opacity:1" fill="#70341a" d="M 180.5,181.5 C 175.419,183.204 170.419,185.204 165.5,187.5C 164.346,185.144 163.013,184.977 161.5,187C 163.645,187.743 163.811,188.576 162,189.5C 160.674,188.201 159.34,186.868 158,185.5C 157.586,185.957 157.086,186.291 156.5,186.5C 153.787,183.786 152.954,184.453 154,188.5C 154.718,187.549 155.551,187.383 156.5,188C 155.427,189.25 155.427,190.584 156.5,192C 155.788,193.442 154.621,194.275 153,194.5C 145.94,191.054 139.107,187.22 132.5,183C 133.672,182.581 134.672,181.915 135.5,181C 133.009,180.374 133.009,179.541 135.5,178.5C 132.891,177.24 133.057,176.24 136,175.5C 137.452,177.825 139.119,177.825 141,175.5C 141.634,171.403 143.301,170.736 146,173.5C 147.113,172.695 148.279,172.028 149.5,171.5C 150.15,171.804 150.817,172.137 151.5,172.5C 162.467,168.269 173.301,163.603 184,158.5C 184.772,158.645 185.439,158.978 186,159.5C 186.83,165.528 186.664,171.528 185.5,177.5C 183.581,178.612 181.914,179.946 180.5,181.5 Z"/></g>
<g><path style="opacity:1" fill="#9f541f" d="M 255.5,150.5 C 256.167,150.5 256.833,150.5 257.5,150.5C 258.244,169.956 257.244,189.289 254.5,208.5C 253.034,209.347 252.2,210.68 252,212.5C 251.576,210.024 250.743,207.691 249.5,205.5C 250.65,201.566 251.484,197.566 252,193.5C 252.827,180.66 252.66,167.993 251.5,155.5C 252.136,153.205 253.469,151.539 255.5,150.5 Z"/></g>
<g><path style="opacity:1" fill="#6c3520" d="M 16.5,159.5 C 18.595,159.76 19.9283,160.926 20.5,163C 18.1415,164.714 16.8082,167.047 16.5,170C 17.6419,175.158 19.8086,175.658 23,171.5C 24.3428,167.49 26.5095,163.99 29.5,161C 37.5577,159.384 41.8911,162.717 42.5,171C 42.4075,176.696 39.9075,180.862 35,183.5C 34.0546,183.095 33.3879,182.428 33,181.5C 34.7455,178.789 35.9121,175.622 36.5,172C 36.8727,169.383 35.8727,167.55 33.5,166.5C 30.3004,171.051 26.9671,175.551 23.5,180C 15.6506,181.398 11.6506,178.065 11.5,170C 11.4489,165.605 13.1156,162.105 16.5,159.5 Z"/></g>
<g><path style="opacity:0.314" fill="#9b6648" d="M 112.5,170.5 C 114.057,176.261 114.724,182.261 114.5,188.5C 113.19,182.712 112.523,176.712 112.5,170.5 Z"/></g>
<g><path style="opacity:1" fill="#9e5522" d="M 229.5,180.5 C 230.833,180.5 232.167,180.5 233.5,180.5C 229.042,192.796 221.376,202.629 210.5,210C 212.856,210.155 215.189,210.155 217.5,210C 210.798,219.212 202.465,226.379 192.5,231.5C 191.5,231.5 190.5,231.5 189.5,231.5C 194.946,217.274 200.946,203.274 207.5,189.5C 210.027,187.49 211.861,184.823 213,181.5C 214.019,182.687 215.186,183.687 216.5,184.5C 217.354,183.478 218.354,182.645 219.5,182C 217.405,181.444 217.238,180.944 219,180.5C 222.62,183.089 226.12,183.089 229.5,180.5 Z"/></g>
<g><path style="opacity:0.871" fill="#9b6647" d="M 102.5,188.5 C 103.461,190.265 103.795,192.265 103.5,194.5C 107.167,194.5 110.833,194.5 114.5,194.5C 114.5,192.833 114.5,191.167 114.5,189.5C 115.797,191.693 115.797,194.027 114.5,196.5C 110.555,195.732 106.555,195.232 102.5,195C 101.667,192.919 101.667,190.752 102.5,188.5 Z"/></g>
<g><path style="opacity:1" fill="#93552f" d="M 198.5,176.5 C 198.031,182.187 197.365,187.854 196.5,193.5C 195.831,196.028 194.998,196.028 194,193.5C 192.249,195.49 191.249,197.823 191,200.5C 190.667,199.167 190.333,197.833 190,196.5C 189.722,197.416 189.222,198.082 188.5,198.5C 189.32,193.858 190.986,189.524 193.5,185.5C 194.308,187.423 194.808,189.423 195,191.5C 195.926,186.319 197.093,181.319 198.5,176.5 Z"/></g>
<g><path style="opacity:1" fill="#b56d36" d="M 112.5,207.5 C 131.836,207.333 151.17,207.5 170.5,208C 173.27,210.763 172.77,212.929 169,214.5C 150.24,213.673 131.407,213.173 112.5,213C 111.248,211.172 111.248,209.339 112.5,207.5 Z"/></g>
<g><path style="opacity:1" fill="#884924" d="M 96.5,106.5 C 94.6996,107.693 93.0329,108.86 91.5,110C 92.6667,110.5 93.5,111.333 94,112.5C 98.0087,111.046 102.175,110.379 106.5,110.5C 101.679,111.867 96.6788,113.034 91.5,114C 89.6667,114.5 88.5,115.667 88,117.5C 87.3333,143.167 87.3333,168.833 88,194.5C 90.2309,211.546 96.8975,226.546 108,239.5C 113.037,244.369 117.87,249.369 122.5,254.5C 120.629,254.141 119.129,253.141 118,251.5C 116.601,252.227 115.101,252.727 113.5,253C 115.373,254.704 117.04,256.537 118.5,258.5C 104.08,247.352 93.2466,233.352 86,216.5C 83.4072,209.036 81.9072,201.369 81.5,193.5C 80.3366,168.337 80.17,143.003 81,117.5C 83.2315,109.794 88.3982,106.127 96.5,106.5 Z"/></g>
<g><path style="opacity:1" fill="#a2561f" d="M 81.5,193.5 C 81.3334,168.831 81.5,144.164 82,119.5C 81.9646,115.755 82.9646,115.088 85,117.5C 85.3333,116.833 85.6667,116.167 86,115.5C 85.3527,142.157 85.3527,168.824 86,195.5C 85.6924,194.692 85.1924,194.025 84.5,193.5C 83.7189,194.729 83.2189,196.062 83,197.5C 82.79,195.942 82.29,194.609 81.5,193.5 Z"/></g>
<g><path style="opacity:1" fill="#be7338" d="M 165.5,223.5 C 165.5,224.833 165.5,226.167 165.5,227.5C 149.833,227.5 134.167,227.5 118.5,227.5C 116.418,226.415 116.084,224.915 117.5,223C 133.672,222.172 149.672,222.339 165.5,223.5 Z"/></g>
<g><path style="opacity:0.314" fill="#ac7857" d="M 165.5,223.5 C 167.599,224.37 167.932,225.703 166.5,227.5C 150.338,228.827 134.338,228.827 118.5,227.5C 134.167,227.5 149.833,227.5 165.5,227.5C 165.5,226.167 165.5,224.833 165.5,223.5 Z"/></g>
<g><path style="opacity:1" fill="#713922" d="M 186.5,204.5 C 185.566,210.632 185.566,216.965 186.5,223.5C 186.5,226.167 186.5,228.833 186.5,231.5C 187.5,231.5 188.5,231.5 189.5,231.5C 190.5,231.5 191.5,231.5 192.5,231.5C 189.449,238.247 188.282,245.247 189,252.5C 182.698,257.801 176.698,263.468 171,269.5C 170.056,268.737 169.556,267.737 169.5,266.5C 171.118,259.911 172.284,253.245 173,246.5C 175.423,243.287 178.09,240.287 181,237.5C 185.589,231.638 186.756,225.138 184.5,218C 184.44,213.348 185.107,208.848 186.5,204.5 Z"/></g>
<g><path style="opacity:0.667" fill="#ab714c" d="M 159.5,238.5 C 148.5,238.5 137.5,238.5 126.5,238.5C 126.433,239.959 126.766,241.292 127.5,242.5C 125.744,241.448 125.077,239.781 125.5,237.5C 137.012,237.172 148.346,237.505 159.5,238.5 Z"/></g>
<g><path style="opacity:1" fill="#bb723a" d="M 159.5,238.5 C 160.799,240.153 160.466,241.653 158.5,243C 147.992,243.825 137.658,243.659 127.5,242.5C 126.766,241.292 126.433,239.959 126.5,238.5C 137.5,238.5 148.5,238.5 159.5,238.5 Z"/></g>
<g><path style="opacity:1" fill="#e6d6c4" d="M 180.5,246.5 C 182.225,246.843 182.725,247.843 182,249.5C 180.333,251.833 178.667,254.167 177,256.5C 177.26,252.889 178.426,249.556 180.5,246.5 Z"/></g>
<g><path style="opacity:1" fill="#924f25" d="M 251.5,155.5 C 252.66,167.993 252.827,180.66 252,193.5C 251.484,197.566 250.65,201.566 249.5,205.5C 250.743,207.691 251.576,210.024 252,212.5C 252.2,210.68 253.034,209.347 254.5,208.5C 250.281,224.276 242.447,237.943 231,249.5C 219.79,261.176 206.957,270.51 192.5,277.5C 191.833,277.5 191.167,277.5 190.5,277.5C 191.218,275.863 191.384,274.197 191,272.5C 188.765,274.202 186.265,275.202 183.5,275.5C 207.232,263.706 226.398,246.706 241,224.5C 250.79,202.532 254.29,179.532 251.5,155.5 Z"/></g>
<g><path style="opacity:1" fill="#975123" d="M 122.5,254.5 C 136.862,265.475 152.529,274.475 169.5,281.5C 174.188,279.488 178.855,277.488 183.5,275.5C 186.265,275.202 188.765,274.202 191,272.5C 191.384,274.197 191.218,275.863 190.5,277.5C 187.167,279.5 183.833,281.5 180.5,283.5C 180.158,284.338 179.492,284.672 178.5,284.5C 175.314,285.338 172.147,286.338 169,287.5C 167.56,286.852 166.06,286.519 164.5,286.5C 147.337,279.97 132.004,270.636 118.5,258.5C 117.04,256.537 115.373,254.704 113.5,253C 115.101,252.727 116.601,252.227 118,251.5C 119.129,253.141 120.629,254.141 122.5,254.5 Z"/></g>
<g><path style="opacity:0.086" fill="#583224" d="M 190.5,277.5 C 191.167,277.5 191.833,277.5 192.5,277.5C 189.086,280.54 185.086,282.54 180.5,283.5C 183.833,281.5 187.167,279.5 190.5,277.5 Z"/></g>
<g><path style="opacity:0.522" fill="#583124" d="M 178.5,284.5 C 174.144,288.42 169.478,289.087 164.5,286.5C 166.06,286.519 167.56,286.852 169,287.5C 172.147,286.338 175.314,285.338 178.5,284.5 Z"/></g>
<g><path style="opacity:1" fill="#6f351e" d="M 248.5,310.5 C 245.833,310.5 243.167,310.5 240.5,310.5C 240.5,309.5 240.5,308.5 240.5,307.5C 244.875,307.653 248.708,306.32 252,303.5C 252.667,301.5 252.667,299.5 252,297.5C 250.938,296.903 249.772,296.57 248.5,296.5C 244.677,297.231 240.844,297.898 237,298.5C 234.558,298.518 232.392,297.851 230.5,296.5C 227.808,291.055 229.141,286.555 234.5,283C 237.932,280.928 241.598,280.262 245.5,281C 246.833,282.333 246.833,283.667 245.5,285C 242.44,285.848 239.44,286.848 236.5,288C 235.594,289.699 235.261,291.533 235.5,293.5C 240.262,293.467 244.929,292.801 249.5,291.5C 257.117,292.839 259.617,297.172 257,304.5C 254.823,307.523 251.989,309.523 248.5,310.5 Z"/></g>
<g><path style="opacity:1" fill="#6b3520" d="M 92.5,278.5 C 94.9032,278.393 96.7365,279.393 98,281.5C 98.927,289.51 99.927,297.51 101,305.5C 104.333,300.167 107.667,294.833 111,289.5C 112.803,290.313 114.303,291.48 115.5,293C 110.798,300.901 105.965,308.734 101,316.5C 99.2933,317.138 97.46,317.138 95.5,316.5C 95.3036,308.065 94.3036,299.732 92.5,291.5C 89.0433,296.246 85.7099,301.08 82.5,306C 80.5826,305.973 78.916,305.139 77.5,303.5C 82.7742,295.277 87.7742,286.944 92.5,278.5 Z"/></g>
<g><path style="opacity:1" fill="#6b3520" d="M 127.5,296.5 C 133.029,298.62 138.696,300.454 144.5,302C 147.063,304.184 146.729,306.017 143.5,307.5C 140.167,306.5 136.833,305.5 133.5,304.5C 130.68,305.779 130.013,307.779 131.5,310.5C 134.07,311.634 136.736,312.468 139.5,313C 141.994,314.912 141.827,316.746 139,318.5C 136,317.5 133,316.5 130,315.5C 127.453,317.569 126.953,320.069 128.5,323C 132.22,324.013 135.886,325.18 139.5,326.5C 140.82,328.864 140.154,330.531 137.5,331.5C 131.877,329.844 126.21,328.344 120.5,327C 119.978,326.439 119.645,325.772 119.5,325C 122.097,315.443 124.763,305.943 127.5,296.5 Z"/></g>
<g><path style="opacity:0.875" fill="#613626" d="M 230.5,296.5 C 232.392,297.851 234.558,298.518 237,298.5C 240.844,297.898 244.677,297.231 248.5,296.5C 249.772,296.57 250.938,296.903 252,297.5C 252.667,299.5 252.667,301.5 252,303.5C 248.708,306.32 244.875,307.653 240.5,307.5C 240.5,308.5 240.5,309.5 240.5,310.5C 243.167,310.5 245.833,310.5 248.5,310.5C 245.829,312.118 242.829,312.785 239.5,312.5C 239.714,310.856 239.38,309.356 238.5,308C 242.155,306.794 245.822,305.461 249.5,304C 252.409,301.161 252.075,298.994 248.5,297.5C 243.876,299.122 239.376,300.122 235,300.5C 233.008,299.672 231.508,298.339 230.5,296.5 Z"/></g>
<g><path style="opacity:1" fill="#6b351f" d="M 157.5,303.5 C 159.89,303.913 162.223,304.579 164.5,305.5C 166.138,308.304 167.971,310.971 170,313.5C 172.029,310.971 173.862,308.304 175.5,305.5C 177.707,304.365 180.04,303.699 182.5,303.5C 180.116,308.599 177.449,313.599 174.5,318.5C 176.869,323.707 179.869,328.541 183.5,333C 180.833,333.667 178.167,333.667 175.5,333C 173.623,330.079 171.623,327.246 169.5,324.5C 167.377,327.246 165.377,330.079 163.5,333C 161.167,333.667 158.833,333.667 156.5,333C 159.756,328.487 162.756,323.82 165.5,319C 163.044,314.59 160.21,310.424 157,306.5C 156.53,305.423 156.697,304.423 157.5,303.5 Z"/></g>
<g><path style="opacity:1" fill="#6b351f" d="M 215.5,294.5 C 218.649,300.422 221.149,306.756 223,313.5C 223.964,321.558 220.464,326.724 212.5,329C 207.393,330.076 203.226,328.576 200,324.5C 197.004,317.679 194.504,310.679 192.5,303.5C 194.191,301.744 196.191,301.244 198.5,302C 200.461,308.214 202.627,314.381 205,320.5C 208.588,324.393 212.254,324.393 216,320.5C 216.167,319.167 216.333,317.833 216.5,316.5C 215.245,310.4 213.578,304.4 211.5,298.5C 211.667,297.833 211.833,297.167 212,296.5C 213.302,295.915 214.469,295.249 215.5,294.5 Z"/></g>
</svg>
